<svg id="Capa_1" data-name="Capa 1" xmlns="http://www.w3.org/2000/svg" viewBox="0 0 190 49"><defs><style>.cls-1,.cls-4{fill:#ddd;}.cls-1,.cls-3{opacity:0.92;}.cls-2{fill:#0085cc;}</style></defs><title>Mesa de trabajo 1</title><path class="cls-1" d="M51.1,30.1a6.52,6.52,0,0,1-2.6,5.7c-1.7,1.3-4.4,2-7.8,2a29.46,29.46,0,0,1-4.6-.3,25.33,25.33,0,0,1-3.6-1.2V30.7a17.45,17.45,0,0,0,4.2,1.6,16.8,16.8,0,0,0,4.1.5c2.5,0,3.7-.7,3.7-2.1a1.66,1.66,0,0,0-.5-1.3,6.09,6.09,0,0,0-1.6-1.1c-.8-.4-1.9-.9-3.2-1.5A19.14,19.14,0,0,1,35,24.5a7,7,0,0,1-2.6-5.6,5.78,5.78,0,0,1,2.5-5A12.46,12.46,0,0,1,42.2,12a20.4,20.4,0,0,1,8.6,2l-2,4.8a35.44,35.44,0,0,0-3.4-1.2,9.82,9.82,0,0,0-3.3-.5c-2,0-2.9.5-2.9,1.6a2.22,2.22,0,0,0,.9,1.6,34.94,34.94,0,0,0,4.2,2,16.75,16.75,0,0,1,4.1,2.1,6.76,6.76,0,0,1,2.7,5.7Zm5-23.9c0-2.1,1.2-3.2,3.6-3.2s3.7,1.1,3.7,3.2a3.33,3.33,0,0,1-.9,2.5,4.07,4.07,0,0,1-2.8.8C57.3,9.5,56.1,8.5,56.1,6.2Zm7,31.1H56.3V12.7h6.8ZM91.6,12.7v3.4l-3.8.9a7,7,0,0,1,1.1,3.7,7.34,7.34,0,0,1-2.8,6.2c-1.9,1.5-4.4,2.1-7.7,2.1H77.2l-1.1-.1A2.39,2.39,0,0,0,75,30.6c0,1.1,1.3,1.5,3.7,1.5h4.2A9.18,9.18,0,0,1,89.1,34c1.5,1.1,2.1,2.8,2.1,5a7.74,7.74,0,0,1-3.6,6.8c-2.4,1.6-6,2.4-10.5,2.4a14.25,14.25,0,0,1-7.8-1.9,5.61,5.61,0,0,1-2.8-5A5.14,5.14,0,0,1,68,37.6a7,7,0,0,1,4.1-2.1A4.54,4.54,0,0,1,70.2,34a3.44,3.44,0,0,1-.8-2.1,4.07,4.07,0,0,1,.8-2.4,8.35,8.35,0,0,1,2.4-1.9,6.36,6.36,0,0,1-3-2.6,7.61,7.61,0,0,1-1.2-4.4A7.78,7.78,0,0,1,71,14.4c1.7-1.5,4.2-2.3,7.5-2.3a11.21,11.21,0,0,1,2.4.3,3.56,3.56,0,0,1,1.9.3h8.8ZM72.5,40.8a2.91,2.91,0,0,0,1.3,2.3,8.25,8.25,0,0,0,3.8.8,12.36,12.36,0,0,0,5.6-1.1c1.5-.7,2.1-1.6,2.1-2.6a2.1,2.1,0,0,0-1.2-2,11.56,11.56,0,0,0-3.8-.5H76.9a4.66,4.66,0,0,0-3,.9,2.33,2.33,0,0,0-1.4,2.2Zm2.5-20a5.27,5.27,0,0,0,.9,3.2,3.33,3.33,0,0,0,2.8,1.1A3.76,3.76,0,0,0,81.5,24a6.06,6.06,0,0,0,.8-3.2q0-4.5-3.6-4.5C76.2,16.3,75,17.8,75,20.8Zm42.7,16.5H111V22.9a8.76,8.76,0,0,0-.9-4,3.29,3.29,0,0,0-2.8-1.3,4.35,4.35,0,0,0-3.8,1.9c-.8,1.3-1.1,3.3-1.1,6.2V37.3H95.6V12.7h5.2l.8,3h.4a6.69,6.69,0,0,1,2.9-2.6,10.82,10.82,0,0,1,4.2-.9q5.55,0,7.5,3.6h.5a7,7,0,0,1,3-2.6,10.82,10.82,0,0,1,4.2-.9,9.09,9.09,0,0,1,6.4,2.1c1.5,1.5,2.3,3.8,2.3,6.9V37.5h-6.8V23.1a8.76,8.76,0,0,0-.9-4,3.29,3.29,0,0,0-2.8-1.3,4,4,0,0,0-3.7,1.7,10,10,0,0,0-1.3,5.6V37.3Zm38,0L154.4,34h-.1a11.48,11.48,0,0,1-3.6,2.9,11.51,11.51,0,0,1-4.6.8,7.82,7.82,0,0,1-5.6-2c-1.5-1.3-2.1-3.3-2.1-5.8a6.49,6.49,0,0,1,2.8-5.8c1.9-1.2,4.6-1.9,8.3-2l4.2-.1V20.9c0-2.5-1.3-3.8-3.8-3.8A17.58,17.58,0,0,0,143,19l-2.3-4.5a18.71,18.71,0,0,1,9.4-2.3q5,0,7.5,2.1c1.9,1.5,2.6,3.7,2.6,6.6V37.3h-4.5Zm-2-11.3H151a8.6,8.6,0,0,0-4.4,1.1,3.69,3.69,0,0,0-1.5,3c0,1.9,1.2,2.8,3.3,2.8a4.81,4.81,0,0,0,5.2-4.9V26Z"/><path class="cls-2" d="M54.2,27.5a7,7,0,0,1-2.6,5.8c-1.7,1.3-4.4,2-7.8,2a20.15,20.15,0,0,1-4.6-.4,30.65,30.65,0,0,1-3.6-1.1V28.2a34,34,0,0,0,4.2,1.5,17.58,17.58,0,0,0,4.1.7c2.5,0,3.7-.8,3.7-2.1,0-.5-.1-1.1-.5-1.3a4.4,4.4,0,0,0-1.6-1.2c-.8-.4-1.9-.9-3.2-1.5a22.85,22.85,0,0,1-4.2-2.1,7.32,7.32,0,0,1-2-2.4,8,8,0,0,1-.5-3.2,5.9,5.9,0,0,1,2.5-5.2c1.7-1.2,4.1-1.7,7.3-1.7A21.89,21.89,0,0,1,54,11.6l-2,4.9c-1.3-.5-2.4-.9-3.4-1.3a10.19,10.19,0,0,0-3.3-.5c-2,0-3,.5-3,1.6a1.82,1.82,0,0,0,1.1,1.6,18.93,18.93,0,0,0,4.1,2,14.24,14.24,0,0,1,4.2,2.3,7,7,0,0,1,2,2.3,12.5,12.5,0,0,1,.5,3Zm5-23.6c0-2.3,1.2-3.3,3.6-3.3s3.7,1.1,3.7,3.3a3,3,0,0,1-.9,2.4,3.66,3.66,0,0,1-2.8.9Q59.2,7.2,59.2,3.9Zm6.9,30.9H59.5V10.2h6.6ZM94.7,10.2v3.4l-3.8,1.1A6.63,6.63,0,0,1,92,18.3a7.34,7.34,0,0,1-2.8,6.2,12.17,12.17,0,0,1-7.7,2.3l-1.2-.1H79.2a2.23,2.23,0,0,0-1.1,1.7c0,.9,1.3,1.5,3.7,1.5H86c2.6,0,4.8.5,6.2,1.7a6.76,6.76,0,0,1,2.1,5.2,7.41,7.41,0,0,1-3.7,6.6c-2.4,1.6-5.8,2.4-10.3,2.4-3.4,0-6.1-.5-7.8-1.7a5.61,5.61,0,0,1-2.8-5,4.68,4.68,0,0,1,1.5-3.7,8.64,8.64,0,0,1,4-2.3,3.46,3.46,0,0,1-1.7-1.5,3.44,3.44,0,0,1-.8-2.1,3.57,3.57,0,0,1,.8-2.3,6.94,6.94,0,0,1,2.4-1.9,5.48,5.48,0,0,1-3-2.8,7.61,7.61,0,0,1-1.2-4.4,7.78,7.78,0,0,1,2.6-6.2c1.7-1.5,4.2-2.1,7.5-2.1a20.93,20.93,0,0,1,2.4.1c.9.1,1.6.3,1.9.3h8.6ZM75.6,38.4a2.26,2.26,0,0,0,1.3,2.1,7.53,7.53,0,0,0,3.7.8,14.1,14.1,0,0,0,5.7-.9c1.5-.7,2.1-1.6,2.1-2.8a1.87,1.87,0,0,0-1.2-1.9,9.67,9.67,0,0,0-3.8-.5H80a5.33,5.33,0,0,0-3,.8A2.61,2.61,0,0,0,75.6,38.4Zm2.6-20.1a6.06,6.06,0,0,0,.8,3.2,3.56,3.56,0,0,0,2.9,1.2,3.49,3.49,0,0,0,2.8-1.2,6.06,6.06,0,0,0,.8-3.2c0-2.9-1.2-4.5-3.6-4.5C79.3,13.8,78.2,15.4,78.2,18.3Zm42.6,16.5H114V20.5a8.44,8.44,0,0,0-.8-4.1,3.63,3.63,0,0,0-2.9-1.3,4,4,0,0,0-3.7,2c-.8,1.2-1.2,3.3-1.2,6.2V34.8H98.6V10.2h5.2l.9,3.2h.4a6.13,6.13,0,0,1,2.9-2.6,8.13,8.13,0,0,1,4.2-.9q5.55,0,7.5,3.6h.5a6.62,6.62,0,0,1,2.9-2.6,9.15,9.15,0,0,1,4.4-.9,9,9,0,0,1,6.4,2.1c1.5,1.4,2.1,3.7,2.1,6.9V35h-6.8V20.7a8.44,8.44,0,0,0-.8-4.1,3.63,3.63,0,0,0-2.9-1.3,4.42,4.42,0,0,0-3.7,1.9c-.8,1.2-1.2,3-1.2,5.6v12Zm38,0-1.3-3.3h-.1a9.69,9.69,0,0,1-8.2,3.8,7.86,7.86,0,0,1-5.7-2.1,7.74,7.74,0,0,1-2-5.7c0-2.6.9-4.6,2.8-5.8a16.11,16.11,0,0,1,8.2-2.1l4.4-.1V18.4c0-2.5-1.3-3.7-3.8-3.7a16.94,16.94,0,0,0-7,1.7l-2.3-4.5a20.51,20.51,0,0,1,9.5-2.3c3.3,0,5.8.8,7.5,2.3a8.14,8.14,0,0,1,2.6,6.5V34.8h-4.6Zm-2-11.4-2.6.1a7.49,7.49,0,0,0-4.4,1.1,3.5,3.5,0,0,0-1.5,2.9c0,1.9,1.1,2.9,3.3,2.9a5.12,5.12,0,0,0,5.2-5.1Z"/><path class="cls-1" d="M98.16,41.92h.72a3.71,3.71,0,0,0,1.49-.23.73.73,0,0,0,.5-.65.67.67,0,0,0-.39-.65,2.83,2.83,0,0,0-1.27-.19h-1v1.73ZM103,41a1.56,1.56,0,0,1-1,1.42,7,7,0,0,1-2.93.5h-.94V45H96V39.08h3.26a6.55,6.55,0,0,1,2.82.46A1.5,1.5,0,0,1,103,41Zm6.3-.88a2.74,2.74,0,0,0-1.88.54,1.85,1.85,0,0,0-.66,1.42c0,1.3.88,2,2.6,2a15.49,15.49,0,0,0,2.65-.31v1a13.26,13.26,0,0,1-2.82.31,6.07,6.07,0,0,1-3.37-.77A2.5,2.5,0,0,1,104.63,42a2.61,2.61,0,0,1,.61-1.61,3.42,3.42,0,0,1,1.71-1,6.89,6.89,0,0,1,2.49-.38,11.13,11.13,0,0,1,3,.42l-.66,1a9.5,9.5,0,0,0-1.16-.27C110,40.11,109.71,40.07,109.33,40.07Zm14.54,3.3c0,.5-.33.92-1,1.23a6.44,6.44,0,0,1-2.76.46,10,10,0,0,1-2.82-.35V43.57a11.79,11.79,0,0,0,1.77.35,8.15,8.15,0,0,0,1.27.12,2.85,2.85,0,0,0,1.11-.15.47.47,0,0,0,.39-.46c0-.12-.06-.19-.22-.31a1.39,1.39,0,0,0-.5-.23,10,10,0,0,0-1.33-.42,5,5,0,0,1-1.33-.46,1.65,1.65,0,0,1-.72-.54,1,1,0,0,1-.33-.73,1.34,1.34,0,0,1,.94-1.19,6,6,0,0,1,2.6-.46,9.78,9.78,0,0,1,1.49.12c.5.08,1,.19,1.49.31l-.66,1c-.55-.12-1-.23-1.33-.27a8.69,8.69,0,0,0-1-.08,1.87,1.87,0,0,0-.94.15c-.28.12-.33.27-.33.42a.33.33,0,0,0,.11.31,1.18,1.18,0,0,0,.39.23c.22.08.66.19,1.33.38a7.21,7.21,0,0,1,2,.81,1.72,1.72,0,0,1,.39,1ZM135,42.07a2.71,2.71,0,0,1-1.27,2.26,7.08,7.08,0,0,1-3.59.77,7.45,7.45,0,0,1-3.65-.77,2.5,2.5,0,0,1-1.22-2.26,2.46,2.46,0,0,1,1.22-2.26,7.45,7.45,0,0,1,3.65-.77,7.08,7.08,0,0,1,3.59.77A2.66,2.66,0,0,1,135,42.07Zm-7.52,0a1.87,1.87,0,0,0,.66,1.46,3.1,3.1,0,0,0,2,.5c1.71,0,2.6-.65,2.6-2s-.88-2-2.6-2a3.32,3.32,0,0,0-2,.5,2,2,0,0,0-.66,1.53Zm9.62,3V39.12h2.16V44h4.15v1h-6.3Zm16.26-5.91v3.8a1.43,1.43,0,0,1-.5,1.15,3.7,3.7,0,0,1-1.49.73,8.88,8.88,0,0,1-2.21.27,6.35,6.35,0,0,1-3-.58A1.86,1.86,0,0,1,145,42.87v-3.8h2.16v3.61a1.25,1.25,0,0,0,.5,1,3.37,3.37,0,0,0,1.6.31,2.88,2.88,0,0,0,1.49-.31,1.2,1.2,0,0,0,.55-1V39.08h2.1ZM159.86,45h-2.16V40.15h-2.76v-1h7.74v1h-2.76V45Zm4.37,0V39.12h2.16V45Zm14-3A2.54,2.54,0,0,1,177,44.33a7.45,7.45,0,0,1-3.65.77,7.08,7.08,0,0,1-3.59-.77,2.55,2.55,0,0,1-1.27-2.26,2.62,2.62,0,0,1,1.27-2.26,8.93,8.93,0,0,1,7.24,0A2.5,2.5,0,0,1,178.22,42.07Zm-7.46,0a1.71,1.71,0,0,0,.66,1.46,3,3,0,0,0,1.88.5c1.77,0,2.65-.65,2.65-2s-.88-2-2.6-2a3.21,3.21,0,0,0-2,.5,2,2,0,0,0-.61,1.53Zm18.69,3h-2.76l-4.48-4.49h-.06c.06.77.11,1.34.11,1.69V45h-1.88V39.12h2.71l4.48,4.41c-.06-.77-.06-1.3-.06-1.65v-2.8h2V45Z"/><g class="cls-3"><path class="cls-4" d="M.38,22.45l16.7-8.6v2.48L3,23.39v.07l14.07,7.05V33L.38,24.4Z"/></g><path class="cls-4" d="M17,36.94l10-26.1h2.45L19.38,36.94Z"/><path class="cls-4" d="M189.43,27.93l-16.7,8.57V34L186.91,27v-.07l-14.18-7.06V17.35l16.7,8.57Z"/></svg>